<?xml version="1.0" standalone="no"?>
<!DOCTYPE svg PUBLIC "-//W3C//DTD SVG 20010904//EN"
 "http://www.w3.org/TR/2001/REC-SVG-20010904/DTD/svg10.dtd">
<svg version="1.0" xmlns="http://www.w3.org/2000/svg"
 width="582.000000pt" height="582.000000pt" viewBox="0 0 582.000000 582.000000"
 preserveAspectRatio="xMidYMid meet">
<metadata>
Created by potrace 1.11, written by Peter Selinger 2001-2013
</metadata>
<g transform="translate(0.000000,582.000000) scale(0.100000,-0.100000)"
fill="#000000" stroke="none">
<path d="M470 2890 l0 -1240 325 0 325 0 0 495 0 495 470 0 470 0 0 -495 0
-495 325 0 325 0 0 1240 0 1240 -325 0 -325 0 0 -490 0 -490 -470 0 -470 0 0
490 0 490 -325 0 -325 0 0 -1240z"/>
<path d="M3250 2889 l0 -1240 663 4 c639 3 665 4 749 25 151 38 287 96 398
172 68 46 193 176 249 258 142 210 214 554 190 907 -25 354 -115 586 -306 786
-188 197 -423 293 -779 319 -77 5 -370 10 -651 10 l-513 0 0 -1241z m1214 708
c227 -79 338 -256 368 -584 27 -299 -34 -571 -159 -704 -66 -71 -117 -104
-209 -136 -76 -26 -89 -27 -321 -31 l-243 -4 0 747 0 747 243 -4 c232 -4 245
-5 321 -31z"/>
</g>
</svg>
